<?xml version="1.0" encoding="utf-8"?>
<!-- Generator: Adobe Illustrator 16.0.0, SVG Export Plug-In . SVG Version: 6.00 Build 0)  -->
<!DOCTYPE svg PUBLIC "-//W3C//DTD SVG 1.1//EN" "http://www.w3.org/Graphics/SVG/1.1/DTD/svg11.dtd">
<svg version="1.1" xmlns="http://www.w3.org/2000/svg" xmlns:xlink="http://www.w3.org/1999/xlink" x="0px" y="0px" width="492px"
	 height="492px" viewBox="0 0 492 492" enable-background="new 0 0 492 492" xml:space="preserve">
<g id="Master_Layer_6">
</g>
<g id="Layer_1">
	<path d="M394.259,271.242c0,3.181,2.579,5.76,5.76,5.76c3.182,0,5.761-2.579,5.761-5.76v-36.904c0-14.419-1.96-28.877-5.88-42.943
		c-3.833-13.758-9.556-27.116-17.166-39.667c-1.641-2.709-5.167-3.575-7.876-1.935c-2.708,1.64-3.575,5.167-1.935,7.875
		c7.042,11.612,12.345,24.001,15.907,36.787c3.619,12.989,5.429,26.417,5.429,39.883V271.242L394.259,271.242z M119.597,157.668
		c1.64-2.708,0.774-6.235-1.935-7.875c-2.709-1.64-6.235-0.774-7.875,1.935c-7.611,12.551-13.333,25.908-17.167,39.667
		c-3.919,14.066-5.879,28.524-5.879,42.943v36.904c0,3.181,2.579,5.76,5.76,5.76c3.181,0,5.76-2.579,5.76-5.76v-36.904
		c0-13.465,1.81-26.894,5.429-39.883C107.253,181.669,112.556,169.281,119.597,157.668z"/>
	<g>
		<path d="M365.63,148.269c1.063,1.478,2.632,2.385,4.305,2.658c1.675,0.273,3.451-0.09,4.929-1.154l0.001,0
			c1.478-1.063,2.386-2.631,2.658-4.304c0.272-1.675-0.091-3.451-1.154-4.928v-0.001c-1.288-1.782-2.601-3.527-3.937-5.231
			c-1.256-1.602-2.597-3.24-4.023-4.914c-1.433-1.68-2.9-3.339-4.404-4.975c-1.328-1.445-2.77-2.945-4.325-4.5
			c-15.388-15.388-33.082-26.986-51.938-34.797c-19.608-8.122-40.532-12.184-61.48-12.184c-20.948,0-41.872,4.062-61.48,12.184
			c-18.857,7.811-36.551,19.409-51.938,34.797c-1.555,1.555-2.997,3.055-4.325,4.5c-1.503,1.635-2.972,3.294-4.404,4.975
			c-1.427,1.673-2.768,3.312-4.023,4.914c-1.336,1.704-2.649,3.449-3.937,5.231l-0.001,0.001c-1.063,1.477-1.426,3.253-1.153,4.928
			c0.272,1.673,1.181,3.241,2.658,4.304l0.001,0c1.477,1.063,3.253,1.427,4.928,1.154c1.673-0.273,3.241-1.181,4.305-2.658
			c1.246-1.724,2.409-3.273,3.488-4.643c1.131-1.436,2.396-2.975,3.797-4.619c1.217-1.428,2.492-2.86,3.825-4.296
			c1.485-1.599,2.896-3.067,4.23-4.401c14.065-14.065,30.313-24.698,47.684-31.893c18.022-7.464,37.197-11.197,56.346-11.197
			c19.148,0,38.323,3.733,56.345,11.197c17.371,7.195,33.619,17.828,47.685,31.893c1.334,1.334,2.745,2.802,4.229,4.401
			c1.333,1.436,2.608,2.868,3.825,4.296c1.4,1.644,2.666,3.184,3.797,4.619C363.221,144.996,364.385,146.545,365.63,148.269
			L365.63,148.269z M368.09,162.268c-4.566-0.744-8.854-3.235-11.775-7.293c-0.886-1.227-1.959-2.64-3.218-4.238
			c-1.193-1.516-2.355-2.937-3.482-4.259c-1.075-1.261-2.245-2.574-3.51-3.936c-1.093-1.177-2.412-2.539-3.96-4.086
			c-13.012-13.012-27.969-22.817-43.904-29.417c-16.573-6.865-34.264-10.298-51.98-10.298s-35.407,3.433-51.981,10.298
			c-15.935,6.6-30.892,16.405-43.904,29.417c-1.547,1.547-2.867,2.909-3.96,4.086c-1.264,1.362-2.435,2.674-3.509,3.936
			c-1.127,1.323-2.289,2.744-3.483,4.259c-1.259,1.599-2.332,3.012-3.218,4.238c-2.921,4.059-7.208,6.549-11.775,7.293
			c-4.565,0.744-9.419-0.257-13.479-3.179l0-0.001c-4.059-2.921-6.549-7.207-7.293-11.774c-0.744-4.565,0.257-9.419,3.179-13.479
			l0.001,0c1.38-1.91,2.783-3.775,4.207-5.591c1.487-1.897,2.934-3.671,4.338-5.318c1.6-1.877,3.159-3.643,4.673-5.289
			c1.668-1.814,3.217-3.437,4.641-4.861c16.441-16.441,35.427-28.866,55.719-37.271c21.057-8.722,43.464-13.083,65.845-13.083
			c22.38,0,44.789,4.361,65.844,13.083c20.293,8.405,39.278,20.831,55.72,37.271c1.424,1.424,2.972,3.047,4.641,4.861
			c1.514,1.646,3.073,3.412,4.673,5.289c1.404,1.647,2.852,3.421,4.339,5.318c1.423,1.816,2.826,3.681,4.206,5.591l0.001,0
			c2.922,4.06,3.923,8.913,3.179,13.479c-0.744,4.567-3.234,8.853-7.293,11.774l-0.001,0.001
			C377.51,162.01,372.655,163.011,368.09,162.268L368.09,162.268z M381.569,159.087L381.569,159.087L381.569,159.087
			L381.569,159.087z M110.951,159.088L110.951,159.088L110.951,159.088z"/>
	</g>
	<path d="M400.025,277.002L400.025,277.002c-1.644,0-3.142,0.677-4.23,1.766c-1.09,1.089-1.767,2.587-1.767,4.23v12.924
		c0,1.643,0.677,3.141,1.767,4.23c1.089,1.089,2.587,1.766,4.229,1.766h0.001c1.646,0,3.148-0.679,4.241-1.771
		c1.092-1.092,1.77-2.594,1.77-4.241v-12.893c0-1.647-0.678-3.149-1.77-4.241C403.174,277.68,401.672,277.002,400.025,277.002
		L400.025,277.002z M400.024,265.481L400.024,265.481c4.828,0,9.213,1.972,12.387,5.146c3.175,3.175,5.146,7.56,5.146,12.387v12.893
		c0,4.827-1.971,9.212-5.146,12.387c-3.174,3.174-7.559,5.146-12.386,5.146h-0.001c-4.822,0-9.203-1.97-12.375-5.141
		c-3.172-3.172-5.141-7.553-5.141-12.376v-12.924c0-4.823,1.969-9.204,5.141-12.376
		C390.821,267.451,395.202,265.481,400.024,265.481z"/>
	<path d="M371.835,237.16c6.109,0,11.659,2.495,15.68,6.515c4.02,4.02,6.515,9.569,6.515,15.679v60.214
		c0,6.108-2.495,11.658-6.515,15.678c-4.021,4.02-9.57,6.515-15.68,6.515c-6.114,0-11.67-2.498-15.694-6.521
		c-4.023-4.023-6.521-9.579-6.521-15.694v-60.169c0-6.115,2.498-11.671,6.521-15.695C360.164,239.658,365.72,237.16,371.835,237.16
		L371.835,237.16z M379.369,251.82c-1.938-1.938-4.604-3.141-7.534-3.141c-2.935,0-5.607,1.205-7.549,3.146s-3.146,4.614-3.146,7.55
		v60.169c0,2.935,1.205,5.607,3.146,7.549s4.614,3.146,7.549,3.146c2.93,0,5.597-1.203,7.534-3.14
		c1.938-1.938,3.14-4.604,3.14-7.533v-60.214C382.509,256.425,381.307,253.757,379.369,251.82z"/>
	<path d="M92.495,265.481L92.495,265.481c4.823,0,9.204,1.97,12.375,5.141c3.171,3.172,5.141,7.553,5.141,12.376v12.924
		c0,4.823-1.969,9.204-5.141,12.376c-3.171,3.171-7.552,5.141-12.375,5.141h0c-4.827,0-9.212-1.972-12.386-5.146
		c-3.174-3.175-5.146-7.56-5.146-12.387v-12.893c0-4.827,1.971-9.212,5.146-12.387C83.283,267.453,87.668,265.481,92.495,265.481
		L92.495,265.481z M92.496,277.002L92.496,277.002c-1.647,0-3.149,0.678-4.242,1.771c-1.092,1.092-1.771,2.594-1.771,4.241v12.893
		c0,1.647,0.679,3.149,1.771,4.241c1.092,1.092,2.594,1.771,4.241,1.771h0c1.643,0,3.141-0.677,4.23-1.766
		c1.089-1.09,1.766-2.588,1.766-4.23v-12.924c0-1.644-0.676-3.142-1.766-4.23S94.139,277.002,92.496,277.002z"/>
	<path d="M120.685,248.68c-2.929,0-5.597,1.203-7.534,3.141c-1.937,1.937-3.14,4.604-3.14,7.533v60.214
		c0,2.929,1.203,5.596,3.14,7.533c1.938,1.937,4.605,3.14,7.534,3.14c2.935,0,5.608-1.205,7.549-3.146
		c1.941-1.941,3.146-4.614,3.146-7.549v-60.169c0-2.936-1.206-5.608-3.146-7.55C126.293,249.885,123.62,248.68,120.685,248.68
		L120.685,248.68z M105.006,243.675c4.02-4.02,9.57-6.515,15.679-6.515c6.115,0,11.671,2.498,15.694,6.521
		c4.023,4.024,6.521,9.58,6.521,15.695v60.169c0,6.115-2.498,11.671-6.521,15.694c-4.024,4.022-9.58,6.521-15.694,6.521
		c-6.109,0-11.66-2.495-15.679-6.515s-6.515-9.569-6.515-15.678v-60.214C98.491,253.244,100.986,247.694,105.006,243.675z"/>
	<path d="M406.638,310.39c-8.593,31.274-26.757,58.015-50.873,77.324c-24.117,19.309-54.178,31.184-86.561,32.726l-0.54-11.476
		c29.926-1.425,57.688-12.386,79.945-30.206c22.258-17.821,39.025-42.507,46.958-71.383L406.638,310.39z"/>
	<path d="M263.075,431.06h-21.839c-3.175,0-6.074-1.305-8.188-3.408l-0.011-0.012l-0.011-0.011
		c-2.104-2.114-3.409-5.013-3.409-8.188v-9.478c0-3.201,1.305-6.107,3.409-8.211c2.103-2.103,5.009-3.408,8.21-3.408h21.839
		c3.2,0,6.107,1.306,8.21,3.408c2.104,2.104,3.409,5.01,3.409,8.211v9.478c0,3.176-1.305,6.074-3.409,8.188l-0.011,0.011
		l-0.012,0.012C269.149,429.755,266.251,431.06,263.075,431.06L263.075,431.06z M241.236,419.54h21.839
		c0.036,0,0.059-0.005,0.065-0.012l0.022-0.022c0.007-0.007,0.011-0.029,0.011-0.065v-9.478c0-0.021-0.013-0.046-0.033-0.065
		c-0.021-0.021-0.045-0.034-0.065-0.034h-21.839c-0.021,0-0.045,0.014-0.065,0.034c-0.021,0.02-0.034,0.044-0.034,0.065v9.478
		c0,0.036,0.004,0.059,0.011,0.065l0.022,0.022C241.178,419.535,241.201,419.54,241.236,419.54z"/>
</g>
</svg>
